# AST/ASF file generated using VICON BodyLanguage
# -----------------------------------------------
:version 1.10
:name VICON
:units
  mass 1.0
  length 0.45
  angle deg
:documentation
   .ast/.asf automatically generated from VICON data using
   VICON BodyBuilder and BodyLanguage model FoxedUp or BRILLIANT.MOD
:root
   order TX TY TZ RX RY RZ
   axis XYZ
   position 0 0 0  
   orientation 0 0 0 
:bonedata
  begin
     id 1 
     name lhipjoint
     direction 0.707368 -0.647095 0.284426 
     length 2.60678 
     axis 0 0 0  XYZ
  end
  begin
     id 2 
     name lfemur
     direction 0.34202 -0.939693 0  
     length 6.63812  
     axis 0 0 20  XYZ
    dof rx ry rz
    limits (-160.0 20.0)
           (-70.0 70.0)
           (-60.0 70.0)
  end
  begin
     id 3 
     name ltibia
     direction 0.34202 -0.939693 0   
     length 7.51178   
     axis 0 0 20   XYZ
    dof rx
    limits (-10.0 170.0)
  end
  begin
     id 4 
     name lfoot
     direction 0.121251 -0.333133 0.935051   
     length 1.83716   
     axis -90 7.62852e-016 20   XYZ
    dof rx rz
    limits (-45.0 90.0)
           (-70.0 20.0)
  end
  begin
     id 5 
     name ltoes
     direction 1.53611e-011 -4.21962e-011 1   
     length 0.916133   
     axis -90 7.62852e-016 20   XYZ
    dof rx
    limits (-90.0 20.0)
  end
  begin
     id 6 
     name rhipjoint
     direction -0.692419 -0.660507 0.290321   
     length 2.55385  
     axis 0 0 0  XYZ 
  end
  begin
     id 7 
     name rfemur
     direction -0.34202 -0.939693 0   
     length 7.29079   
     axis 0 0 -20   XYZ
    dof rx ry rz
    limits (-160.0 20.0)
           (-70.0 70.0)
           (-70.0 60.0)
  end
  begin
     id 8 
     name rtibia
     direction -0.34202 -0.939693 0   
     length 7.47143   
     axis 0 0 -20   XYZ
    dof rx
    limits (-10.0 170.0)
 end
 begin
     id 9 
     name rfoot
     direction -0.119907 -0.329441 0.936532   
     length 1.79439  
     axis -90 -7.62852e-016 -20   XYZ
    dof rx rz
    limits (-45.0 90.0)
           (-20.0 70.0)
  end
  begin
     id 10 
     name rtoes
     direction -1.53571e-011 -4.21961e-011 1   
     length 0.896039   
     axis -90 -7.62852e-016 -20   XYZ
    dof rx
    limits (-90.0 20.0)
  end
  begin
     id 11 
     name lowerback
     direction 0.0367721 0.992912 -0.113016   
     length 1.73542   
     axis 0 0 0   XYZ
    dof rx ry rz
    limits (-20.0 45.0)
           (-30.0 30.0)
           (-30.0 30.0)
  end
  begin
     id 12 
     name upperback
     direction -0.000314626 0.990678 0.136227   
     length 1.7514   
     axis 0 0 0   XYZ
    dof rx ry rz
    limits (-20.0 45.0)
           (-30.0 30.0)
           (-30.0 30.0)
  end
  begin
     id 13 
     name thorax
     direction -0.0226159 0.981151 0.191917   
     length 1.71471   
     axis 0 0 0   XYZ
    dof rx ry rz
    limits (-20.0 45.0)
           (-30.0 30.0)
           (-30.0 30.0)
  end
  begin
     id 14 
     name lowerneck
     direction 0.0219333 0.998071 0.0580739   
     length 1.65882   
     axis 0 0 0   XYZ
    dof rx ry rz
    limits (-20.0 45.0)
           (-30.0 30.0)
           (-30.0 30.0)
  end
  begin
     id 15 
     name upperneck
     direction 0.0384529 0.980058 -0.194957   
     length 1.6612   
     axis 0 0 0   XYZ
    dof rx ry rz
    limits (-20.0 45.0)
           (-30.0 30.0)
           (-30.0 30.0)
  end
  begin
     id 16
     name head
     direction 0.00592123 0.997421 -0.0715234  
     length 1.68077  
     axis 0 0 0   XYZ
    dof rx ry rz
    limits (-20.0 45.0)
           (-30.0 30.0)
           (-30.0 30.0)
  end
  begin
     id 17 
     name lclavicle
     direction 0.904803 0.417826 0.0821728  
     length 3.42227  
     axis 0 0 0   XYZ
    dof ry rz
    limits (-20.0 10.0)
           (0.0 20.0)
  end
  begin
     id 18 
     name lhumerus
     direction 1 -4.48965e-011 -2.68786e-027   
     length 5.11878   
     axis -180 -30 -90   XYZ
    dof rx ry rz
    limits (-60.0 90.0)
           (-90.0 90.0)
           (-90.0 90.0)
  end
  begin
     id 19
     name lradius
     direction 1 -4.48965e-011 2.61168e-028   
     length 3.59971   
     axis -180 -30 -90   XYZ
    dof rx
    limits (-10.0 170.0)
  end
  begin
     id 20
     name lwrist
     direction 1 -4.48965e-011 1.58672e-027   
     length 1.79985   
     axis -1.65735e-015 90 90   XYZ
    dof ry
    limits (-180.0 0.0)
 end
  begin
     id 21 
     name lhand
     direction 1 -4.48942e-011 3.17344e-027   
     length 0.62877   
     axis -2.02492e-015 90 90   XYZ
    dof rx rz
    limits (-90.0 90.0)
           (-45.0 45.0)
  end
  begin
     id 22 
     name lfingers
     direction 1 -4.49011e-011 6.34687e-027   
     length 0.506931   
     axis -4.04985e-015 90 90   XYZ
    dof rx
    limits (0.0 90.0)
  end
  begin
     id 23
     name lthumb
     direction 0.707107 -6.34982e-011 0.707107   
     length 0.727854   
     axis -90 45 2.85299e-015   XYZ
    dof rx rz
    limits (-45.0 45.0)
           (-45.0 45.0)
  end
  begin
     id 24 
     name rclavicle
     direction -0.945647 0.32488 0.0143075   
     length 3.52737  
     axis 0 0 0   XYZ 
    dof ry rz
    limits (-10.0 20.0)
           (-20.0 0.0)
  end
  begin
     id 25 
     name rhumerus
     direction -1 -4.48962e-011 1.92182e-027  
     length 5.4902   
     axis -180 30 90   XYZ
    dof rx ry rz
    limits (-90.0 60.0)
           (-90.0 90.0)
           (-90.0 90.0)
  end
  begin
     id 26 
     name rradius
     direction -1 -4.48967e-011 -5.97193e-028   
     length 3.20659   
     axis -180 30 90   XYZ
    dof rx
    limits (-10.0 170.0)
  end
  begin
     id 27 
     name rwrist
     direction -1 -4.48964e-011 1.58672e-027   
     length 1.6033   
     axis -1.65735e-015 -90 -90   XYZ
    dof ry
    limits (-180.0 0.0)
  end
  begin
     id 28
     name rhand
     direction -1 -4.49006e-011 3.17344e-027   
     length 0.691885   
     axis -2.02492e-015 -90 -90   XYZ
    dof rx rz
    limits (-90.0 90.0)
           (-45.0 45.0)
  end
  begin
     id 29
     name rfingers
     direction -1 -4.48908e-011 6.34687e-027   
     length 0.557815   
     axis -4.04985e-015 -90 -90   XYZ
    dof rx
    limits (0.0 90.0)
  end
  begin
     id 30
     name rthumb
     direction -0.707107 -6.34999e-011 0.707107   
     length 0.800915   
     axis -90 -45 -2.85299e-015   XYZ
    dof rx rz
    limits (-45.0 45.0)
           (-45.0 45.0)
  end
:hierarchy
  begin
    root lhipjoint rhipjoint lowerback
    lhipjoint lfemur
    lfemur ltibia
    ltibia lfoot
    lfoot ltoes
    rhipjoint rfemur
    rfemur rtibia
    rtibia rfoot
    rfoot rtoes
    lowerback upperback
    upperback thorax
    thorax lowerneck lclavicle rclavicle
    lowerneck upperneck
    upperneck head
    lclavicle lhumerus
    lhumerus lradius
    lradius lwrist
    lwrist lhand lthumb
    lhand lfingers
    rclavicle rhumerus
    rhumerus rradius
    rradius rwrist
    rwrist rhand rthumb
    rhand rfingers
  end

#!OML:ASF I:\Actors\actors\Patient Classification 1\Patient 1\Session 1\Subject1.ASF
:FULLY-SPECIFIED
:DEGREES
1
root 0.630893 17.4738 9.05875 8.3713 -1.73711 -9.91543
lowerback 2.93348 1.39461 7.95972
upperback -8.87341 2.69965 1.33285
thorax -10.9142 0.694697 -3.32924
lowerneck -6.51786 -13.2184 -7.04599
upperneck 17.3016 -18.7137 7.23688
head 7.75432 -8.89172 1.65694
rclavicle 2.48481e-015 5.4467e-014
rhumerus -50.2662 -30.0162 -64.0083
rradius 22.2131
rwrist 46.3393
rhand 6.8083 -28.9188
rfingers 7.12502
rthumb 32.0932 -56.106
lclavicle 2.48481e-015 5.4467e-014
lhumerus -47.4419 25.3998 66.0863
lradius 17.4411
lwrist -27.8388
lhand -17.4624 -10.5849
lfingers 7.12502
lthumb 8.78914 19.2121
rfemur -3.93111 24.3481 26.6808
rtibia 1.98983
rfoot -10.1571 -23.3802
rtoes -0.290527
lfemur 6.54845 -44.8613 -11.9141
ltibia -4.94415
lfoot -19.5908 52.8888
ltoes 8.84126
2
root 0.623512 17.4646 9.04746 8.67994 -1.54612 -10.0921
lowerback 2.6977 1.23963 7.98673
upperback -9.15276 2.50805 1.5704
thorax -11.1263 0.597414 -3.0601
lowerneck -5.73801 -13.0252 -7.65642
upperneck 17.1763 -18.4547 7.49558
head 7.64209 -8.81522 1.90924
rclavicle 5.76476e-015 3.73715e-014
rhumerus -50.4102 -29.3368 -63.9847
rradius 22.2388
rwrist 46.2736
rhand 6.80064 -28.9009
rfingers 7.12502
rthumb 32.0859 -56.0896
lclavicle 5.76476e-015 3.73715e-014
lhumerus -48.1218 25.5291 65.9175
lradius 17.5629
lwrist -27.6731
lhand -17.5367 -10.5884
lfingers 7.12502
lthumb 8.71749 19.2115
rfemur -4.39137 24.3528 26.784
rtibia 2.14891
rfoot -10.1487 -23.5278
rtoes -0.796194
lfemur 5.6662 -44.1703 -10.939
ltibia -4.92869
lfoot -18.7733 52.2047
ltoes 8.2425
3
root 0.624716 17.4616 9.0548 8.72167 -1.69627 -10.1567
lowerback 2.47999 1.18028 7.9731
upperback -9.29653 2.43069 1.76801
thorax -11.1778 0.56683 -2.82408
lowerneck -4.97685 -12.8332 -8.23475
upperneck 17.0613 -18.1957 7.68142
head 7.5241 -8.74167 2.13306
rclavicle 6.16232e-015 4.05521e-014
rhumerus -50.5359 -28.649 -63.9649
rradius 22.2437
rwrist 46.1817
rhand 6.77333 -28.973
rfingers 7.12502
rthumb 32.0599 -56.1669
lclavicle 6.16232e-015 4.05521e-014
lhumerus -48.8279 25.7454 65.6943
lradius 17.647
lwrist -27.5798
lhand -17.6687 -10.6274
lfingers 7.12502
lthumb 8.59009 19.1779
rfemur -4.46309 24.2778 26.8168
rtibia 2.20243
rfoot -10.1065 -23.2988
rtoes -1.12233
lfemur 5.8758 -44.4878 -11.0479
ltibia -4.97461
lfoot -19.3769 52.5856
ltoes 8.86543
4
root 0.625435 17.4578 9.05636 8.87271 -1.74984 -10.1575
lowerback 2.22942 1.09178 7.8937
upperback -9.45655 2.30609 1.96337
thorax -11.2333 0.51896 -2.54824
lowerneck -4.36572 -12.6608 -8.77412
upperneck 16.9726 -17.9547 7.79462
head 7.43001 -8.67355 2.31543
rclavicle -2.22639e-014 4.77083e-015
rhumerus -50.5622 -28.0368 -63.925
rradius 22.2046
rwrist 46.1816
rhand 6.78795 -29.0743
rfingers 7.12502
rthumb 32.0738 -56.2654
lclavicle -2.22639e-014 4.77083e-015
lhumerus -49.4531 25.9358 65.5812
lradius 17.7552
lwrist -27.4016
lhand -17.7335 -10.6659
lfingers 7.12502
lthumb 8.52749 19.1419
rfemur -4.65959 24.3731 26.729
rtibia 2.23372
rfoot -10.1507 -23.2833
rtoes -0.682072
lfemur 5.72458 -44.5984 -10.9478
ltibia -4.98489
lfoot -19.5927 52.7346
ltoes 9.11112
5
root 0.621154 17.4567 9.06591 9.25017 -1.57019 -9.95796
lowerback 1.55186 0.934727 7.54537
upperback -9.63687 2.02038 2.11413
thorax -11.066 0.423094 -2.14585
lowerneck -3.84167 -12.4789 -9.19901
upperneck 16.8821 -17.7058 7.87732
head 7.33477 -8.59386 2.46746
rclavicle -3.42904e-015 5.60573e-014
rhumerus -50.4121 -27.5008 -63.9103
rradius 21.8717
rwrist 46.2093
rhand 6.59881 -29.0392
rfingers 7.12502
rthumb 31.8937 -56.2664
lclavicle -3.42904e-015 5.60573e-014
lhumerus -49.9858 25.9899 65.5962
lradius 17.9212
lwrist -27.0622
lhand -17.7267 -10.647
lfingers 7.12502
lthumb 8.53413 19.1605
rfemur -4.97464 24.727 26.3631
rtibia 2.08582
rfoot -10.22 -23.7674
rtoes 0.267132
lfemur 5.03639 -44.7343 -10.6628
ltibia -4.93821
lfoot -19.465 52.7401
ltoes 9.00477
6
root 0.609728 17.4537 9.08071 10.0241 -1.34055 -9.53523
lowerback 0.310966 0.622594 6.76497
upperback -10.0551 1.47754 2.45948
thorax -10.8545 0.248119 -1.26545
lowerneck -2.72246 -12.0626 -10.1519
upperneck 16.6847 -17.141 8.01318
head 7.12368 -8.41193 2.78813
rclavicle 1.78409e-014 -6.99722e-014
rhumerus -50.1659 -26.1504 -63.9543
rradius 21.2855
rwrist 46.0212
rhand 6.15146 -28.7662
rfingers 7.12502
rthumb 31.4676 -56.0775
lclavicle 1.78409e-014 -6.99722e-014
lhumerus -51.0625 25.9631 65.9593
lradius 18.54
lwrist -26.2695
lhand -17.396 -8.76551
lfingers 7.12502
lthumb 8.85326 21.0288
rfemur -5.75409 25.1506 25.5548
rtibia 1.91917
rfoot -10.2492 -24.4088
rtoes 1.30712
lfemur 3.65072 -44.9533 -10.1199
ltibia -4.80071
lfoot -19.5872 52.7487
ltoes 9.18728
7
root 0.603911 17.4565 9.08364 10.2986 -1.24969 -9.30686
lowerback -0.0316202 0.407444 6.33767
upperback -10.095 1.14928 2.67681
thorax -10.7202 0.141225 -0.76198
lowerneck -3.00296 -11.9159 -10.4955
upperneck 16.8415 -16.8742 7.89577
head 7.21766 -8.30041 2.80822
rclavicle 1.77415e-014 -3.29983e-014
rhumerus -49.5897 -25.6692 -64.0826
rradius 20.887
rwrist 46.1133
rhand 5.83765 -28.4363
rfingers 7.12502
rthumb 31.1686 -55.8055
lclavicle 1.77415e-014 -3.29983e-014
lhumerus -51.3533 26.4082 66.0474
lradius 18.7572
lwrist -26.1278
lhand -17.2705 -8.16982
lfingers 7.12502
lthumb 8.97429 21.6193
rfemur -6.04642 25.2732 25.1733
rtibia 1.86172
rfoot -10.2716 -24.648
rtoes 1.71913
lfemur 3.09994 -44.9648 -9.9734
ltibia -4.7333
lfoot -19.6093 52.6734
ltoes 9.20727
8
root 0.602786 17.4557 9.081 10.3506 -1.19047 -9.29943
lowerback -0.0510305 0.330408 6.28291
upperback -10.1079 1.04798 2.76002
thorax -10.7313 0.100799 -0.632719
lowerneck -3.08009 -11.877 -10.5995
upperneck 16.8923 -16.8005 7.85507
head 7.24609 -8.27084 2.81247
rclavicle -9.41742e-015 -9.83984e-015
rhumerus -49.4427 -25.5974 -64.0867
rradius 20.8149
rwrist 46.2321
rhand 5.7749 -28.3062
rfingers 7.12502
rthumb 31.1088 -55.6868
lclavicle -9.41742e-015 -9.83984e-015
lhumerus -51.459 26.5375 66.0602
lradius 18.7984
lwrist -26.0946
lhand -17.3378 -8.0934
lfingers 7.12502
lthumb 8.90942 21.6985
rfemur -6.11897 25.2996 25.1405
rtibia 1.86839
rfoot -10.3383 -24.7093
rtoes 1.96387
lfemur 2.92478 -44.8112 -9.83316
ltibia -4.73638
lfoot -19.3708 52.5301
ltoes 8.88635
9
root 0.602666 17.4552 9.08101 10.3567 -1.16932 -9.29011
lowerback -0.068816 0.323448 6.26481
upperback -10.1105 1.0364 2.76346
thorax -10.7242 0.0971117 -0.617877
lowerneck -3.05224 -11.8772 -10.6347
upperneck 16.8888 -16.8068 7.89032
head 7.247 -8.27438 2.82954
rclavicle -9.36773e-015 3.00165e-014
rhumerus -49.3954 -25.5407 -64.1904
rradius 20.835
rwrist 46.1224
rhand 5.79833 -28.393
rfingers 7.12502
rthumb 31.1311 -55.7694
lclavicle -9.36773e-015 3.00165e-014
lhumerus -51.4738 26.541 66.0488
lradius 18.7845
lwrist -26.1845
lhand -17.3848 -7.97438
lfingers 7.12502
lthumb 8.86399 21.8195
rfemur -6.12821 25.3388 25.122
rtibia 1.86634
rfoot -10.3805 -24.7346
rtoes 2.46019
lfemur 2.8919 -44.7862 -9.81923
ltibia -4.73273
lfoot -19.2506 52.5011
ltoes 8.82413
10
root 0.602724 17.4546 9.08082 10.3624 -1.15055 -9.30739
lowerback -0.0591434 0.361387 6.29552
upperback -10.1344 1.08718 2.70666
thorax -10.7533 0.115051 -0.700124
lowerneck -2.96742 -11.925 -10.5705
upperneck 16.8952 -16.8959 7.93171
head 7.24108 -8.31339 2.82849
rclavicle 4.99446e-015 -8.34896e-015
rhumerus -49.4684 -25.5945 -64.287
rradius 20.8834
rwrist 45.9552
rhand 5.82193 -28.5426
rfingers 7.12502
rthumb 31.1536 -55.9147
lclavicle 4.99446e-015 -8.34896e-015
lhumerus -51.4215 26.3921 66.0207
lradius 18.7303
lwrist -26.3166
lhand -17.3413 -7.92088
lfingers 7.12502
lthumb 8.90597 21.8712
rfemur -6.14687 25.3374 25.1387
rtibia 1.88448
rfoot -10.3428 -24.7423
rtoes 2.59974
lfemur 2.86125 -44.806 -9.78104
ltibia -4.71688
lfoot -19.1188 52.5182
ltoes 8.79883
11
root 0.602833 17.4551 9.08069 10.3426 -1.13951 -9.31959
lowerback -0.0329993 0.452039 6.34578
upperback -10.153 1.20486 2.57002
thorax -10.7798 0.159588 -0.885394
lowerneck -2.84342 -12.0204 -10.3471
upperneck 16.8775 -17.0653 7.96687
head 7.2135 -8.3837 2.79724
rclavicle -1.03368e-014 -1.35174e-014
rhumerus -49.699 -25.939 -64.2361
rradius 20.932
rwrist 45.9668
rhand 5.81667 -28.5971
rfingers 7.12502
rthumb 31.1486 -55.9702
lclavicle -1.03368e-014 -1.35174e-014
lhumerus -51.2437 25.9971 66.0831
lradius 18.6648
lwrist -26.3494
lhand -17.3209 -7.86594
lfingers 7.12502
lthumb 8.92572 21.9253
rfemur -6.11791 25.3035 25.1678
rtibia 1.87693
rfoot -10.3023 -24.7328
rtoes 2.3617
lfemur 2.8757 -44.7762 -9.77332
ltibia -4.72382
lfoot -19.0731 52.4968
ltoes 8.72932
12
root 0.602208 17.4563 9.08105 10.309 -1.14423 -9.29376
lowerback -0.004025 0.496763 6.32036
upperback -10.1533 1.26032 2.49617
thorax -10.792 0.184577 -0.956019
lowerneck -2.7738 -12.0689 -10.239
upperneck 16.8527 -17.1557 8.01629
head 7.19679 -8.42009 2.79229
rclavicle -1.83876e-014 3.91606e-014
rhumerus -49.8191 -26.1403 -64.2017
rradius 20.97
rwrist 46.0094
rhand 5.76385 -28.5347
rfingers 7.12502
rthumb 31.0983 -55.9174
lclavicle -1.83876e-014 3.91606e-014
lhumerus -51.1616 25.7866 66.117
lradius 18.6333
lwrist -26.3744
lhand -17.3166 -7.81105
lfingers 7.12502
lthumb 8.92988 21.98
rfemur -6.06059 25.3363 25.1591
rtibia 1.85828
rfoot -10.3694 -24.7583
rtoes 2.32587
lfemur 2.93484 -44.7369 -9.84191
ltibia -4.73163
lfoot -19.1407 52.4456
ltoes 8.72889
13
root 0.60176 17.4569 9.08161 10.2861 -1.15895 -9.28102
lowerback 0.0272117 0.493505 6.28217
upperback -10.1518 1.25696 2.50278
thorax -10.8095 0.186313 -0.927744
lowerneck -2.78606 -12.0765 -10.286
upperneck 16.8747 -17.1731 8.0654
head 7.21644 -8.427 2.81069
rclavicle -1.82882e-014 3.20043e-014
rhumerus -49.781 -26.0951 -64.2613
rradius 20.9741
rwrist 45.9441
rhand 5.6904 -28.4613
rfingers 7.12502
rthumb 31.0283 -55.8574
lclavicle -1.82882e-014 3.20043e-014
lhumerus -51.2045 25.8174 66.0692
lradius 18.6314
lwrist -26.4494
lhand -17.2997 -7.76267
lfingers 7.12502
lthumb 8.94611 22.0277
rfemur -6.02909 25.3619 25.1598
rtibia 1.86418
rfoot -10.3935 -24.7693
rtoes 2.37223
lfemur 3.00088 -44.7883 -9.9126
ltibia -4.7161
lfoot -19.2993 52.4676
ltoes 8.85119
